<svg xmlns="http://www.w3.org/2000/svg" width="400" height="848" viewBox="0 0 400 848" fill="none">
<g clip-path="url(#clip0_6065_472735)">
<rect width="400" height="848" fill="#00062B"/>
<g>
<circle cx="119.053" cy="119.053" r="119.053" transform="matrix(-1 0 0 1 479.092 -338.477)" fill="#1031A7" fill-opacity="0.6"/>
</g>
<g>
<circle cx="119.32" cy="119.32" r="119.32" transform="matrix(-1 0 0 1 234.922 -349)" fill="#7F10A7" fill-opacity="0.6"/>
</g>
<g>
<circle cx="145.806" cy="145.806" r="145.806" transform="matrix(-1 0 0 1 347.822 -349)" fill="#1095A7" fill-opacity="0.4"/>
</g>
<g opacity="0.9">
<circle cx="109.003" cy="-10.8372" r="142.507" fill="#1031A7" fill-opacity="0.6"/>
</g>
<g opacity="0.9">
<circle cx="359.86" cy="-10.925" r="157.934" fill="#7F10A7" fill-opacity="0.6"/>
</g>
<g opacity="0.9">
<circle cx="142.802" cy="733.712" r="157.934" fill="#7F10A7" fill-opacity="0.6"/>
</g>
<g opacity="0.9">
<circle cx="418.541" cy="1100.41" r="236.589" fill="#7F10A7" fill-opacity="0.6"/>
</g>
<g opacity="0.9">
<circle cx="305.195" cy="182.501" r="162.304" fill="#1095A7" fill-opacity="0.4"/>
</g>
<g opacity="0.9">
<circle cx="30.0805" cy="523.073" r="171.846" fill="#1095A7" fill-opacity="0.5"/>
</g>
<g opacity="0.9">
<circle cx="463.395" cy="760.911" r="237.749" fill="#1095A7" fill-opacity="0.5"/>
</g>
<g opacity="0.9">
<circle cx="56.2096" cy="1010.25" r="237.749" fill="#1095A7" fill-opacity="0.5"/>
</g>
<g opacity="0.9">
<circle cx="109.002" cy="259.194" r="164.266" fill="#7F10A7" fill-opacity="0.51"/>
</g>
<g opacity="0.9">
<ellipse cx="338.101" cy="469.119" rx="225.888" ry="225.799" fill="#1031A7" fill-opacity="0.5"/>
</g>
<g opacity="0.9">
<ellipse cx="-133.829" cy="779.101" rx="169.171" ry="169.082" fill="#1031A7" fill-opacity="0.5"/>
</g>
</g>
<defs>






































































<clipPath id="clip0_6065_472735">
<rect width="400" height="848" fill="white"/>
</clipPath>
</defs>
</svg>